<svg id="Layer_1" data-name="Layer 1" xmlns="http://www.w3.org/2000/svg" viewBox="0 0 512 512"><defs><style>.cls-1{fill:#35a047;}.cls-2{fill:#233519;}</style></defs><rect class="cls-1" width="512" height="512" rx="85.33"/><path class="cls-2" d="M167.41,124.87V334.65h41.47v52.48H99.21V124.87Z"/><path class="cls-2" d="M412.79,239.07H344.6V193.49q0-19.89-2.19-24.82t-9.64-4.93q-8.43,0-10.69,6t-2.27,25.92V317.48q0,19.11,2.27,24.94t10.2,5.84q7.62,0,10-5.85T344.6,315V282h68.19v10.22q0,40.72-5.75,57.75t-25.43,29.86q-19.68,12.81-48.52,12.81-30,0-49.4-10.85t-25.76-30.05q-6.31-19.2-6.32-57.75V217.36q0-28.34,1.94-42.52t11.59-27.29q9.63-13.12,26.73-20.66t39.28-7.53q30.14,0,49.73,11.65t25.76,29q6.15,17.38,6.15,54.11Z"/></svg>